PathFileType	4	(X/Y/Z)	/Users/mathieubourgeois/Desktop/Analyse/Traitement/Sujet_03/Data/Transformed_Sujet_03_velo_80.trc
DataRate	CameraRate	NumFrames	NumMarkers	Units	OrigDataRate	OrigDataStartFrame	OrigNumFrames
120.000000	120.000000	4	36	mm	120.000000	233	1868
Frame#	Time	RFHD			LFHD			RBHD			LBHD			C7			CLAV			RSHO			LSHO			STRN			T10			RBWT			LBWT			RFWT			LFWT			RKNI			LKNI			RKNE			LKNE			LANI			RANI			LANE			RANE			LTOE			RTOE			LHEE			RHEE			RHUM			LHUM			RRAD			LRAD			RWRA			RWRB			LWRA			LWRB			LCAR			RCAR			
		X1	Y1	Z1	X2	Y2	Z2	X3	Y3	Z3	X4	Y4	Z4	X5	Y5	Z5	X6	Y6	Z6	X7	Y7	Z7	X8	Y8	Z8	X9	Y9	Z9	X10	Y10	Z10	X11	Y11	Z11	X12	Y12	Z12	X13	Y13	Z13	X14	Y14	Z14	X15	Y15	Z15	X16	Y16	Z16	X17	Y17	Z17	X18	Y18	Z18	X19	Y19	Z19	X20	Y20	Z20	X21	Y21	Z21	X22	Y22	Z22	X23	Y23	Z23	X24	Y24	Z24	X25	Y25	Z25	X26	Y26	Z26	X27	Y27	Z27	X28	Y28	Z28	X29	Y29	Z29	X30	Y30	Z30	X31	Y31	Z31	X32	Y32	Z32	X33	Y33	Z33	X34	Y34	Z34	X35	Y35	Z35	X36	Y36	Z36	

234	1.941666666666667	151.4285430908203	1568.3076171875	100.9254989624023	132.1203765869141	1565.624145507812	-51.1712951660157	38.31826019287108	1636.045654296875	117.5992431640624	10.46691226959229	1649.061889648438	-28.86373329162608	-110.0029907226562	1553.970581054688	45.02233505249013	-72.06437683105469	1398.717407226562	40.63463211059561	-46.8405685424805	1485.311157226562	212.6887817382812	-77.2222442626953	1507.198608398438	-141.5185699462891	-173.0931854248047	1261.712036132812	41.20172500610342	-323.7703857421875	1452.218872070312	46.98941802978502	-522.3145751953125	1262.828735351562	121.9874038696288	-526.32568359375	1263.91162109375	-1.645851135254048	-374.3139038085938	1189.85791015625	180.7501678466795	-375.4727478027344	1185.12841796875	-64.62030029296886	-180.9656066894532	691.6878051757812	124.3512802124023	-45.94422149658202	884.3250732421875	-53.55217742919928	-191.5652923583985	741.6785278320312	238.9166259765624	-47.53144836425779	925.89306640625	-163.2183227539063	-325.8021850585938	638.3515625	-54.06437683105477	-219.7888336181641	318.8989868164062	121.5954895019531	-351.46630859375	622.0787963867188	-140.634735107422	-246.4139404296875	300.1341247558594	209.008316040039	-213.5089874267578	472.843017578125	-92.53516387939459	-68.55073547363283	176.5754699707031	143.0094299316406	-425.425537109375	637.0742797851562	-99.80857849121104	-316.4922180175781	286.0634765625	167.9501342773437	28.7006912231445	1189.193969726562	234.1847534179687	12.63905048370363	1198.2939453125	-147.7774963378907	80.42655181884761	1213.267211914062	292.2907714843749	60.91333770751956	1231.40771484375	-206.2624664306641	283.8457336425781	1040.91015625	217.2730255126953	269.5112304687499	1028.6845703125	297.0958251953125	249.5492858886719	1060.754272460938	-128.3668365478516	229.929183959961	1046.32080078125	-205.7070007324219	326.8447570800781	1033.668212890625	-222.3236541748047	373.5388183593749	1028.580810546875	300.5218200683594	
235	1.95	151.6901397705078	1568.610961914062	100.2118988037109	132.4225616455078	1565.894897460938	-51.8978576660157	38.5613441467285	1636.2958984375	116.7881927490233	10.66412734985352	1649.223876953125	-29.61668586730967	-109.7168655395508	1554.046020507812	44.23324966430653	-72.04803466796875	1399.080810546875	40.09586334228506	-46.49797058105472	1485.4697265625	211.9606475830077	-77.1328887939453	1507.219116210938	-142.2615661621095	-172.6794128417969	1261.744140625	40.62107849121084	-323.3891906738281	1452.145141601562	46.6052093505858	-522.0205688476562	1262.922119140625	121.6679687499999	-525.941650390625	1264.04541015625	-1.996130943298482	-374.2796020507812	1189.861938476562	180.7012481689452	-375.04248046875	1185.215454101562	-64.63491058349621	-186.3321533203125	688.2179565429688	124.1156158447265	-41.53003311157226	892.7412109375	-53.16215515136725	-196.2854919433594	738.5260620117188	238.6630859374999	-43.81925964355467	934.234375	-162.9179229736329	-318.1004333496094	642.1984252929688	-52.92660140991219	-228.8490447998047	315.9145202636719	121.7184600830078	-342.5895690917969	625.6305541992188	-140.3544006347657	-255.936508178711	297.2302551269531	208.6041259765624	-201.5386962890625	479.4664611816406	-92.27837371826178	-80.34668731689455	170.4627685546875	143.1362915039062	-415.3383483886719	638.8536987304688	-99.91865539550791	-325.9906921386719	284.7492065429688	168.0445709228515	28.7591743469238	1189.215698242188	234.0358123779296	12.55981159210207	1198.23486328125	-148.325408935547	80.52391052246089	1213.342895507812	292.0673217773437	60.09622192382815	1231.431274414062	-206.8662109375001	283.86474609375	1040.859252929688	217.2431945800781	269.5342407226562	1028.681640625	297.0867614746094	249.5231018066407	1060.822875976562	-128.5297241210938	229.9498901367188	1046.21142578125	-205.8062744140625	326.8583984375	1033.6103515625	-222.3694152832032	373.5464477539062	1028.558959960938	300.5377502441406	
236	1.958333333333333	151.9834136962891	1568.912963867188	99.44680786132804	132.5234069824219	1566.275756835938	-52.41656112670906	38.75348663330077	1636.507202148438	116.0784988403319	10.84445953369141	1649.392944335938	-30.3807373046876	-109.2412338256836	1554.357788085938	43.23175430297841	-71.80947875976562	1399.204956054688	39.47129440307608	-46.1752853393555	1485.601684570312	211.3118743896484	-77.10948181152342	1507.196044921875	-143.0124969482423	-172.21533203125	1261.853637695312	40.05825042724599	-323.0417785644531	1452.076416015625	46.21524810791002	-521.8257446289062	1263.07275390625	121.2772293090819	-525.6389770507812	1264.200561523438	-2.377677440643452	-374.2883605957031	1189.961181640625	180.6307525634764	-374.6648254394531	1185.368896484375	-64.66210937500011	-191.1125183105469	685.409912109375	123.8578186035156	-37.57078552246093	900.6454467773438	-52.76712036132819	-200.5345001220703	735.8855590820312	238.4154052734374	-41.39004898071287	942.1915283203125	-162.7171020507813	-309.1226196289062	645.5028076171875	-52.58543777465828	-238.0792236328125	313.64404296875	121.6289901733398	-333.4188537597656	628.1394653320312	-140.0105438232422	-265.610107421875	295.37451171875	208.4733428955078	-189.1202545166016	485.2304382324219	-92.17631530761724	-92.4486541748047	165.0290222167969	143.2893524169922	-407.4873657226562	639.5789184570312	-99.14125061035166	-335.7474975585938	284.2124633789062	167.833511352539	28.83112907409665	1189.290893554688	233.907501220703	12.5126361846924	1198.135131835938	-148.9086151123048	80.64421844482418	1213.458740234375	291.8605041503906	60.84869384765628	1231.124755859375	-207.4170684814454	283.8919067382812	1040.820434570312	217.2249755859375	269.5544128417968	1028.7080078125	297.0774536132812	249.514877319336	1060.826904296875	-128.6468505859375	229.9697875976563	1046.105834960938	-205.90478515625	326.9038696289062	1033.5361328125	-222.3962554931641	373.5626220703124	1028.561645507812	300.5613098144531	
237	1.966666666666667	152.1750030517578	1569.20751953125	98.7763137817382	132.7204895019531	1566.464477539062	-53.07975006103523	38.94308471679686	1636.722534179688	115.3323287963866	10.99226665496827	1649.514892578125	-31.06705856323252	-109.0077590942383	1554.414672851562	42.5135269165038	-71.24796295166016	1399.07861328125	38.58801651000967	-45.89979171752933	1485.757568359375	210.7108764648437	-77.03678131103514	1507.11376953125	-143.658432006836	-171.9064636230469	1261.8876953125	39.6257438659667	-322.7482604980469	1452.077758789062	45.81807708740221	-521.7238159179688	1263.3076171875	120.802764892578	-525.4083251953125	1264.43408203125	-2.867176771164082	-374.3446350097656	1190.12060546875	180.5635681152342	-374.3707885742188	1185.60888671875	-64.74474334716808	-195.3361206054688	683.2088623046875	123.6540985107421	-33.74819183349609	909.158203125	-53.00205230712897	-204.2359008789063	733.6885986328125	238.1625518798827	-38.57877349853513	949.4493408203125	-162.4001159667969	-300.7362060546875	647.2958374023438	-51.92396926879891	-247.4675903320313	312.0701599121094	121.3798294067382	-324.1328430175781	629.532470703125	-139.6538238525391	-275.5407409667969	294.2856750488281	208.1945343017578	-176.9679870605469	489.9202880859375	-92.62086486816412	-105.3198471069336	160.5439605712891	143.9292144775391	-398.3533630371094	638.8226318359375	-98.2356491088868	-345.7253723144531	284.4578857421875	167.3583679199218	28.93799209594724	1189.36865234375	233.8121490478515	12.47008895874025	1197.974731445312	-149.4396209716798	80.77045440673824	1213.608642578125	291.6755981445312	60.86299896240237	1230.95068359375	-207.9046783447266	283.9091491699219	1040.80029296875	217.2180786132812	269.5938110351562	1028.7705078125	297.0778503417969	249.5170440673828	1060.852294921875	-128.7426300048828	230.0546569824219	1046.004516601562	-205.9798736572266	326.9815673828125	1033.481689453125	-222.4118041992188	373.5870056152343	1028.579223632812	300.5712890625	
